<!--?xml version="1.0" standalone="no"?-->
              <svg id="sw-js-blob-svg" viewBox="0 0 100 100" xmlns="http://www.w3.org/2000/svg" version="1.1">
                    <defs> 
                        <linearGradient id="sw-gradient" x1="0" x2="1" y1="1" y2="0">
                            <stop id="stop1" stop-color="rgba(107, 79, 241, 1)" offset="0%"></stop>
                            <stop id="stop2" stop-color="rgba(107, 79, 241, 1)" offset="100%"></stop>
                        </linearGradient>
                    </defs>
                <path fill="url(#sw-gradient)" d="M25.4,-27C33.5,-23.5,40.9,-16,41.9,-7.8C42.8,0.4,37.3,9.4,31.3,16.4C25.3,23.5,18.8,28.7,10.9,32.9C2.9,37.2,-6.5,40.4,-13,37.4C-19.6,34.3,-23.2,24.9,-26.1,16.7C-29,8.4,-31,1.3,-31.3,-6.9C-31.5,-15.2,-30,-24.5,-24.4,-28.4C-18.9,-32.3,-9.5,-30.8,-0.4,-30.4C8.7,-29.9,17.3,-30.4,25.4,-27Z" width="100%" height="100%" transform="translate(50 50)" stroke-width="0" style="transition: all 0.3s ease 0s;" stroke="url(#sw-gradient)"></path>
              </svg>