<?xml version="1.0" standalone="no"?>
<svg xmlns:xlink="http://www.w3.org/1999/xlink" id="wave" style="transform:rotate(180deg); transition: 0.3s" viewBox="0 0 1440 260" version="1.1" xmlns="http://www.w3.org/2000/svg"><defs><linearGradient id="sw-gradient-0" x1="0" x2="0" y1="1" y2="0"><stop stop-color="rgba(62, 200.688, 243, 1)" offset="0%"/><stop stop-color="rgba(11, 65.697, 255, 1)" offset="100%"/></linearGradient></defs><path style="transform:translate(0, 0px); opacity:1" fill="url(#sw-gradient-0)" d="M0,156L40,169C80,182,160,208,240,208C320,208,400,182,480,151.7C560,121,640,87,720,91C800,95,880,139,960,138.7C1040,139,1120,95,1200,104C1280,113,1360,173,1440,169C1520,165,1600,95,1680,60.7C1760,26,1840,26,1920,56.3C2000,87,2080,147,2160,151.7C2240,156,2320,104,2400,78C2480,52,2560,52,2640,65C2720,78,2800,104,2880,112.7C2960,121,3040,113,3120,95.3C3200,78,3280,52,3360,73.7C3440,95,3520,165,3600,169C3680,173,3760,113,3840,82.3C3920,52,4000,52,4080,65C4160,78,4240,104,4320,112.7C4400,121,4480,113,4560,99.7C4640,87,4720,69,4800,91C4880,113,4960,173,5040,186.3C5120,199,5200,165,5280,156C5360,147,5440,165,5520,177.7C5600,191,5680,199,5720,203.7L5760,208L5760,260L5720,260C5680,260,5600,260,5520,260C5440,260,5360,260,5280,260C5200,260,5120,260,5040,260C4960,260,4880,260,4800,260C4720,260,4640,260,4560,260C4480,260,4400,260,4320,260C4240,260,4160,260,4080,260C4000,260,3920,260,3840,260C3760,260,3680,260,3600,260C3520,260,3440,260,3360,260C3280,260,3200,260,3120,260C3040,260,2960,260,2880,260C2800,260,2720,260,2640,260C2560,260,2480,260,2400,260C2320,260,2240,260,2160,260C2080,260,2000,260,1920,260C1840,260,1760,260,1680,260C1600,260,1520,260,1440,260C1360,260,1280,260,1200,260C1120,260,1040,260,960,260C880,260,800,260,720,260C640,260,560,260,480,260C400,260,320,260,240,260C160,260,80,260,40,260L0,260Z"/></svg>